<?xml version="1.0" encoding="UTF-8"?>
<svg width="261px" height="117px" viewBox="0 0 261 117" version="1.1" xmlns="http://www.w3.org/2000/svg" xmlns:xlink="http://www.w3.org/1999/xlink">
    <!-- Generator: Sketch 49.2 (51160) - http://www.bohemiancoding.com/sketch -->
    <title>row1Apps</title>
    <desc>Created with Sketch.</desc>
    <defs></defs>
    <g id="Page-1" stroke="none" stroke-width="1" fill="none" fill-rule="evenodd">
        <g id="homepage1" transform="translate(-56.000000, -115.000000)">
            <g id="row1Apps" transform="translate(56.000000, 115.000000)">
                <g id="row1box" stroke="#353535" stroke-width="2">
                    <path d="M13,1.00093261 C6.372583,1.00093261 1,6.37351561 1,13.0009326 L1,104 C1,110.627417 6.372583,116 13,116 L104,116 C110.627417,116 116,110.627417 116,104 L116,13.0009326 C116,6.37351561 110.627417,1.00093261 104,1.00093261 L13,1.00093261 Z" id="Rectangle-6"></path>
                    <path d="M157,1 C150.372583,1 145,6.372583 145,13 L145,103.999067 C145,110.626484 150.372583,115.999067 157,115.999067 L248,115.999067 C254.627417,115.999067 260,110.626484 260,103.999067 L260,13 C260,6.372583 254.627417,1 248,1 L157,1 Z" id="Rectangle-6"></path>
                </g>
                <g id="internet" transform="translate(25.000000, 30.000000)">
                    <circle id="Oval" fill="#7624D7" cx="31.5" cy="31.5" r="30.5"></circle>
                    <path d="M55.0576552,52.379069 C59.9933793,46.8166034 63,39.5042586 63,31.5 C63,23.1720517 59.7457241,15.5946724 54.4493793,9.95617241 C54.4493793,9.95617241 54.4493793,9.95508621 54.4493793,9.95508621 C54.4450345,9.94856897 54.4385172,9.94639655 54.4352586,9.94096552 C48.9184138,4.07653448 41.1889655,0.322603448 32.5916379,0.0282413793 L32.5905517,0.0271551724 L31.9768448,0.010862069 C31.8182586,0.00543103448 31.6596724,0 31.5,0 C31.3403276,0 31.1817414,0.00543103448 31.0231552,0.010862069 L30.4116207,0.0271551724 L30.4105345,0.0282413793 C21.8132069,0.322603448 14.0837586,4.07653448 8.56691379,9.94096552 C8.56256897,9.94639655 8.55605172,9.94856897 8.5527931,9.95508621 C8.5527931,9.95508621 8.5527931,9.95617241 8.5517069,9.95725862 C3.25427586,15.5946724 0,23.1720517 0,31.5 C0,39.5042586 3.00662069,46.8166034 7.94234483,52.379069 C7.94886207,52.3888448 7.94886207,52.3997069 7.95646552,52.4094828 C7.97601724,52.4366379 8.00425862,52.4496724 8.02489655,52.4746552 C13.571069,58.6747241 21.5286207,62.6687069 30.4094483,62.9728448 L30.4105345,62.973931 L31.022069,62.9902241 C31.1817414,62.994569 31.3403276,63 31.5,63 C31.6596724,63 31.8182586,62.994569 31.9768448,62.9891379 L32.5883793,62.9728448 L32.5894655,62.9717586 C41.480069,62.6665345 49.4463103,58.6649483 54.9924828,52.4518448 C55.0066034,52.4333793 55.0294138,52.4279483 55.0424483,52.4083966 C55.0511379,52.3997069 55.0511379,52.3888448 55.0576552,52.379069 Z M2.19956897,32.5862069 L15.2373103,32.5862069 C15.3600517,37.1906379 16.259431,41.6647241 17.8605,45.8563966 C14.7713276,46.9741034 11.817931,48.473069 9.05027586,50.3435172 C4.98025862,45.5022931 2.44722414,39.3315517 2.19956897,32.5862069 Z M9.64334483,11.9732586 C12.3458276,13.7307414 15.2231897,15.1384655 18.2243793,16.1899138 C16.3865172,20.6509655 15.3698276,25.4606897 15.2373103,30.4137931 L2.19956897,30.4137931 C2.45917241,23.3458448 5.22682759,16.910069 9.64334483,11.9732586 Z M60.800431,30.4137931 L47.7626897,30.4137931 C47.6301724,25.4606897 46.6134828,20.6509655 44.7756207,16.1899138 C47.7768103,15.1384655 50.6541724,13.7307414 53.3566552,11.9732586 C57.7731724,16.910069 60.5408276,23.3458448 60.800431,30.4137931 Z M30.4137931,16.2529138 C27.273569,16.1638448 24.1909138,15.6956897 21.2125345,14.8593103 C23.4142759,10.3428621 26.523,6.26632759 30.4137931,2.87193103 L30.4137931,16.2529138 Z M30.4137931,18.4253276 L30.4137931,30.4137931 L17.4097241,30.4137931 C17.5433276,25.6909655 18.5339483,21.110431 20.3055517,16.8633621 C23.5706897,17.8094483 26.9607414,18.333 30.4137931,18.4253276 Z M32.5862069,18.4253276 C36.0392586,18.333 39.4293103,17.8105345 42.6955345,16.8633621 C44.4671379,21.110431 45.4577586,25.6909655 45.5913621,30.4137931 L32.5862069,30.4137931 L32.5862069,18.4253276 Z M32.5862069,16.2529138 L32.5862069,2.87193103 C36.477,6.26632759 39.5857241,10.3428621 41.7874655,14.8593103 C38.8090862,15.6956897 35.726431,16.1638448 32.5862069,16.2529138 Z M43.8925345,14.1988966 C41.805931,9.82691379 38.9101034,5.8437931 35.3245345,2.42984483 C41.6853621,3.26187931 47.4085862,6.13815517 51.8164138,10.3787069 C49.3137931,11.9667414 46.6591034,13.2441207 43.8925345,14.1988966 Z M19.1074655,14.1988966 C16.3408966,13.2441207 13.6862069,11.9667414 11.1846724,10.3787069 C15.5914138,6.13815517 21.3157241,3.26187931 27.6765517,2.42984483 C24.0898966,5.8437931 21.194069,9.82691379 19.1074655,14.1988966 Z M17.4097241,32.5862069 L30.4137931,32.5862069 L30.4137931,43.4895517 C26.8217069,43.5851379 23.3023966,44.1456207 19.9199483,45.1633966 C18.3916552,41.1933103 17.5324655,36.9516724 17.4097241,32.5862069 Z M30.4137931,45.6619655 L30.4137931,60.128069 C26.2492759,56.4947069 22.9841379,52.0803621 20.763931,47.1837414 C23.8780862,46.2658966 27.1128103,45.7553793 30.4137931,45.6619655 Z M32.5862069,60.128069 L32.5862069,45.6619655 C35.8871897,45.7542931 39.1219138,46.2658966 42.236069,47.1826552 C40.0158621,52.0803621 36.7507241,56.4947069 32.5862069,60.128069 Z M32.5862069,43.4895517 L32.5862069,32.5862069 L45.5902759,32.5862069 C45.4675345,36.9516724 44.6083448,41.1933103 43.0789655,45.1644828 C39.6976034,44.1456207 36.1782931,43.5851379 32.5862069,43.4895517 Z M47.7626897,32.5862069 L60.800431,32.5862069 C60.5527759,39.3315517 58.0208276,45.5022931 53.9497241,50.3435172 C51.182069,48.473069 48.2286724,46.9741034 45.1395,45.8563966 C46.7416552,41.6647241 47.6399483,37.1906379 47.7626897,32.5862069 Z M10.526431,51.9706552 C13.0963966,50.2631379 15.8325517,48.8901724 18.6914483,47.8637069 C20.8041207,52.599569 23.8368103,56.915069 27.6754655,60.5701552 C20.9942069,59.6957586 15.0146379,56.5674828 10.526431,51.9706552 Z M35.3245345,60.5701552 C39.1631897,56.9161552 42.1958793,52.6006552 44.3085517,47.8637069 C47.1674483,48.8901724 49.9025172,50.2631379 52.473569,51.9706552 C47.9853621,56.5674828 42.0057931,59.6957586 35.3245345,60.5701552 Z" id="Shape" fill="#000000" fill-rule="nonzero"></path>
                </g>
                <g id="mail" transform="translate(171.000000, 37.000000)">
                    <rect id="Rectangle-4" fill="#2CFEE7" x="4" y="2" width="56" height="42"></rect>
                    <path d="M55.3090925,0 L7.70390612,0 C3.45437415,0 0,3.45840131 0,7.71288744 L0,40.2871126 C0,44.5415987 3.45437415,48 7.70390612,48 L55.2960571,48 C59.5455891,48 62.9999632,44.5415987 62.9999632,40.2871126 L62.9999632,7.72593801 C63.0129986,3.47145188 59.5586245,0 55.3090925,0 Z M59.4934476,40.2871126 C59.4934476,42.5970636 57.6163537,44.4763458 55.3090925,44.4763458 L7.70390612,44.4763458 C5.39664489,44.4763458 3.51955102,42.5970636 3.51955102,40.2871126 L3.51955102,7.72593801 C3.51955102,5.41598695 5.39664489,3.53670473 7.70390612,3.53670473 L55.2960571,3.53670473 C57.6033183,3.53670473 59.4804122,5.41598695 59.4804122,7.72593801 L59.4804122,40.2871126 L59.4934476,40.2871126 Z" id="Shape" fill="#000000" fill-rule="nonzero"></path>
                    <path d="M39.8099961,24.0815259 L55.3818837,10.1156564 C56.1064639,9.45688895 56.1723349,8.33698432 55.5136256,7.5991648 C54.8549163,6.87452062 53.7351105,6.80864388 52.9973561,7.46741131 L31.5234333,26.7429463 L27.3340422,23.0011473 C27.320868,22.987972 27.3076938,22.9747966 27.3076938,22.9616213 C27.2154745,22.8693938 27.1232552,22.7903417 27.0178618,22.7112896 L9.97046536,7.45423596 C9.23271095,6.79546853 8.11290516,6.86134527 7.45419587,7.5991648 C6.79548658,8.33698432 6.86135751,9.45688895 7.59911192,10.1156564 L23.3554381,24.200104 L7.66498284,38.8906177 C6.95357681,39.5625605 6.91405425,40.6824651 7.58593773,41.4071093 C7.94164075,41.7760191 8.41591143,41.9736493 8.89018212,41.9736493 C9.32493025,41.9736493 9.75967838,41.8155451 10.1022072,41.4993368 L26.0297978,26.5980175 L30.3509308,30.4583946 C30.6934596,30.7614276 31.1150335,30.9063565 31.5366075,30.9063565 C31.9581814,30.9063565 32.3929295,30.7482523 32.7222842,30.4452193 L37.1619848,26.466264 L52.9973561,41.5125121 C53.3398849,41.8418958 53.7878073,42 54.2225554,42 C54.6968261,42 55.1579226,41.8155451 55.5136256,41.4466354 C56.1855091,40.7351665 56.1591607,39.6020866 55.4477547,38.9301438 L39.8099961,24.0815259 Z" id="Shape" fill="#000000" fill-rule="nonzero"></path>
                </g>
            </g>
        </g>
    </g>
</svg>