<?xml version="1.0" encoding="UTF-8"?>
<svg width="261px" height="117px" viewBox="0 0 261 117" version="1.1" xmlns="http://www.w3.org/2000/svg" xmlns:xlink="http://www.w3.org/1999/xlink">
    <!-- Generator: Sketch 49.2 (51160) - http://www.bohemiancoding.com/sketch -->
    <title>row2Apps</title>
    <desc>Created with Sketch.</desc>
    <defs></defs>
    <g id="Page-1" stroke="none" stroke-width="1" fill="none" fill-rule="evenodd">
        <g id="homepage1" transform="translate(-58.000000, -269.000000)">
            <g id="row2Apps" transform="translate(58.000000, 269.000000)">
                <g id="row2" stroke="#353535" stroke-width="2">
                    <path d="M13,1.00093261 C6.372583,1.00093261 1,6.37351561 1,13.0009326 L1,104 C1,110.627417 6.372583,116 13,116 L104,116 C110.627417,116 116,110.627417 116,104 L116,13.0009326 C116,6.37351561 110.627417,1.00093261 104,1.00093261 L13,1.00093261 Z" id="Rectangle-6"></path>
                    <path d="M157,1 C150.372583,1 145,6.372583 145,13 L145,103.999067 C145,110.626484 150.372583,115.999067 157,115.999067 L248,115.999067 C254.627417,115.999067 260,110.626484 260,103.999067 L260,13 C260,6.372583 254.627417,1 248,1 L157,1 Z" id="Rectangle-6"></path>
                </g>
                <g id="fb" transform="translate(175.000000, 30.000000)">
                    <circle id="Oval" fill="#7624D7" cx="30.5" cy="30.5" r="30.5"></circle>
                    <path d="M61,30.5 C61,13.6556275 47.3442729,0 30.5,0 C13.6556275,0 0,13.6556275 0,30.5 C0,47.3442729 13.6556275,61 30.5,61 C47.3442729,61 61,47.3442729 61,30.5 Z M2.77270915,30.5 C2.77270915,15.1862092 15.1862092,2.77270915 30.5,2.77270915 C45.8137908,2.77270915 58.2272908,15.1862092 58.2272908,30.5 C58.2272908,45.8137908 45.8137908,58.2272908 30.5,58.2272908 C15.1862092,58.2272908 2.77270915,45.8137908 2.77270915,30.5 Z" id="Shape" fill="#000000" fill-rule="nonzero"></path>
                    <path d="M31.6962619,46 L31.6962619,28.9772055 L37.7133461,28.9772055 L38.6640369,23.336032 L31.6962619,23.336032 L31.6962619,20.5073974 C31.6962619,19.0354433 32.2132155,17.630475 34.4764751,17.630475 L39,17.630475 L39,12 L32.5779843,12 C27.1784155,12 25.7049892,15.3192218 25.7049892,19.9202349 L25.7049892,23.3334297 L22,23.3334297 L22,28.9772055 L25.7049892,28.9772055 L25.7049892,46 L31.6962619,46 Z" id="Shape" fill="#000000" fill-rule="nonzero"></path>
                </g>
                <g id="whatsapp" transform="translate(30.000000, 30.000000)" fill-rule="nonzero">
                    <path d="M0,58 L4.988,43.037 C2.457,38.78 1,33.812 1,28.5 C1,12.76 13.76,0 29.5,0 C45.24,0 58,12.76 58,28.5 C58,44.24 45.24,57 29.5,57 C24.711,57 20.201,55.813 16.24,53.727 L0,58 Z" id="Shape" stroke="#000000" stroke-width="2" fill="#2CFEE7"></path>
                    <path d="M47.683,37.985 C46.367,35.498 41.514,32.654 41.514,32.654 C40.416,32.028 39.091,31.958 38.465,33.074 C38.465,33.074 36.888,34.965 36.487,35.237 C34.655,36.478 32.958,36.43 31.245,34.717 L27.264,30.736 L23.283,26.755 C21.57,25.042 21.522,23.345 22.763,21.513 C23.035,21.112 24.926,19.535 24.926,19.535 C26.042,18.908 25.972,17.584 25.346,16.486 C25.346,16.486 22.502,11.633 20.015,10.317 C18.957,9.757 17.658,9.953 16.812,10.799 L15.054,12.557 C9.477,18.134 12.223,24.43 17.8,30.007 L22.897,35.104 L27.994,40.201 C33.571,45.778 39.867,48.524 45.444,42.947 L47.202,41.189 C48.048,40.341 48.243,39.042 47.683,37.985 Z" id="Shape" fill="#FFFFFF"></path>
                </g>
            </g>
        </g>
    </g>
</svg>