<?xml version="1.0" encoding="UTF-8"?>
<svg width="261px" height="117px" viewBox="0 0 261 117" version="1.1" xmlns="http://www.w3.org/2000/svg" xmlns:xlink="http://www.w3.org/1999/xlink">
    <!-- Generator: Sketch 49.2 (51160) - http://www.bohemiancoding.com/sketch -->
    <title>row3Apps</title>
    <desc>Created with Sketch.</desc>
    <defs>
        <path d="M42.5139675,8.4838031 L41.9945609,8.65466207 L41.9945609,10.1066681 C41.9945609,25.6511928 30.3083618,38.291804 16.0253293,38.291804 C8.14794552,38.291804 2.86759461,37.010657 0.0110080561,35.6440805 C5.98393432,35.2170315 9.44651184,33.3379765 12.1300294,31.2881609 L14.2941403,29.7508239 L11.6972072,29.7508239 C6.76309406,29.7508239 3.73333874,28.3842474 2.00204998,25.1387143 C3.56016996,25.6511928 5.20487433,25.6511928 7.02274748,25.5657633 C7.71522308,25.4803338 8.40779843,25.4803338 9.10027404,25.4803338 L9.35992745,23.7721378 C6.07051871,22.8326103 2.175119,19.9286968 0.270661469,15.9999246 C2.00195023,16.7685932 3.90630801,16.9394521 5.63759677,16.9394521 L8.32111429,16.9394521 L6.1571031,15.4020167 C4.33922995,14.1208697 -1.02770535,9.59418957 1.56922779,3.103025 C7.10933186,8.4838031 12.3897825,10.9606676 21.9117709,12.6688637 L22.9505841,12.8397226 L22.9505841,10.4482876 C22.9505841,5.15293896 27.1056372,0.797019428 32.2995035,0.711589942 C34.2904457,0.626160457 37.5799542,2.41978596 38.5320832,2.93226445 C39.0514898,3.18845449 39.5708963,3.27388397 40.0902032,3.10312342 C41.3886697,2.67607442 42.9467897,2.07816644 44.6780785,1.3949274 C43.8990185,2.67607442 42.8602053,3.87179195 41.4752541,4.98217842 C41.1290163,5.23836845 41.0424319,5.75084694 41.2156007,6.17789595 C41.3887695,6.60494495 41.9080763,6.77580392 42.3408985,6.60494495 L45.7168916,5.49465691 C45.1109007,6.60484653 44.1586719,7.88599355 42.5139675,8.4838031 Z" id="path-1"></path>
    </defs>
    <g id="Page-1" stroke="none" stroke-width="1" fill="none" fill-rule="evenodd">
        <g id="homepage1" transform="translate(-58.000000, -423.000000)">
            <g id="row3Apps" transform="translate(58.000000, 423.000000)">
                <g id="row3" stroke="#353535" stroke-width="2">
                    <path d="M13,1.00093261 C6.372583,1.00093261 1,6.37351561 1,13.0009326 L1,104 C1,110.627417 6.372583,116 13,116 L104,116 C110.627417,116 116,110.627417 116,104 L116,13.0009326 C116,6.37351561 110.627417,1.00093261 104,1.00093261 L13,1.00093261 Z" id="Rectangle-6"></path>
                    <path d="M157,1 C150.372583,1 145,6.372583 145,13 L145,103.999067 C145,110.626484 150.372583,115.999067 157,115.999067 L248,115.999067 C254.627417,115.999067 260,110.626484 260,103.999067 L260,13 C260,6.372583 254.627417,1 248,1 L157,1 Z" id="Rectangle-6"></path>
                </g>
                <g id="twitter" transform="translate(181.000000, 39.000000)" fill-rule="nonzero">
                    <g id="Shape">
                        <use stroke="#979797" stroke-width="1" fill="#2CFEE7" fill-rule="evenodd" xlink:href="#path-1"></use>
                        <use stroke="#979797" stroke-width="1" xlink:href="#path-1"></use>
                        <use stroke="#000000" stroke-width="2" xlink:href="#path-1"></use>
                    </g>
                </g>
                <g id="map" transform="translate(26.000000, 32.000000)">
                    <rect id="Rectangle-8" fill="#7624D7" x="0" y="0" width="60" height="56" rx="13"></rect>
                    <path d="M31,23 C34.3077143,23 37,20.5320714 37,17.5 C37,14.4679286 34.3077143,12 31,12 C27.6922857,12 25,14.4679286 25,17.5 C25,20.5320714 27.6914286,23 31,23 Z M31,13.5714286 C33.3631429,13.5714286 35.2857143,15.3337857 35.2857143,17.5 C35.2857143,19.6662143 33.3631429,21.4285714 31,21.4285714 C28.6368571,21.4285714 26.7142857,19.6662143 26.7142857,17.5 C26.7142857,15.3337857 28.6368571,13.5714286 31,13.5714286 Z" id="Shape" fill="#000000" fill-rule="nonzero"></path>
                    <path d="M46.0476066,32.2163536 L40.1940557,32.2163536 L42.6847371,28.6229604 C47.3889942,22.358206 46.7080827,12.0606843 41.2289105,6.58729312 C38.2690296,3.62927715 34.3323306,2 30.1446835,2 C25.9578538,2 22.0211549,3.62927715 19.0604564,6.58729312 C13.5812843,12.0606843 12.9003727,22.3590227 17.5858292,28.59846 L20.0936764,32.2171703 L13.9523934,32.2171703 L5,51 L55,51 L46.0476066,32.2163536 Z M18.9125033,27.642944 C14.6627321,21.9808997 15.2717107,12.6813614 20.217107,7.74126235 C22.8688203,5.09195153 26.3951739,3.63254388 30.1455009,3.63254388 C33.8958279,3.63254388 37.4213641,5.09195153 40.0738948,7.74126235 C45.0192911,12.6813614 45.6282697,21.9817164 41.3596979,27.6674445 L30.1446835,43.8483308 L22.0824614,32.2163536 L18.9125033,27.642944 Z M14.9856134,33.8497142 L21.2258043,33.8497142 L30.1446835,46.7181453 L39.0627452,33.8497142 L45.0143866,33.8497142 L52.4104107,49.3666394 L7.58958933,49.3666394 L14.9856134,33.8497142 Z" id="Shape" fill="#000000" fill-rule="nonzero"></path>
                </g>
            </g>
        </g>
    </g>
</svg>